# xmcd
#
# Track frame offsets: 
#        150
#        14127
#        27252
#        42332
#        55170
#        69327
#        83025
#        96047
#        110632
#        124732
#        138360
#        151555
#        164927
#        178037
#        192362
#        205095
#        220725
#        238010
#
# Disc length: 3376 seconds
#
# Revision: 3
# Processed by: cddbd v1.5.2PL0 Copyright (c) Steve Scherf et al.
# Submitted via: ExactAudioCopy v0.99pb5
#
DISCID=fb0d2e12
DTITLE=Billie Holiday - The Best Of Billie Holiday
DYEAR=1990
DGENRE=Jazz - Blues
TTITLE0=The Man I Love [1939 with Teddy Wilson Orchestra]
TTITLE1=Summertime [1936 with Billie Holiday Orchestra]
TTITLE2=It's Like Reaching For The Moon [1936 with Teddy Wilson Orches
TTITLE2=tra]
TTITLE3=A Fine Romance [1936 with Billie Holiday Orchestra]
TTITLE4=I'll Get By [1937 with Teddy Wilson Orchestra]
TTITLE5=My Man [1937 with Teddy Wilson Orchestra]
TTITLE6=St. Louis Blues [1940 with Billie Holiday Orchestra]
TTITLE7=Solitude [1940 with Billie Holiday Orchestra]
TTITLE8=Georgia On My Mind [1940]
TTITLE9=Night And Day [1939 with Billie Holiday Orchestra]
TTITLE10=I Cover The Waterfront [1941]
TTITLE11=All Of Me [1941]
TTITLE12=God Bless The Child [1941]
TTITLE13=Gloomy Sunday [1940]
TTITLE14=Them There Eyes [1939 with Teddy Wilson Orchestra]
TTITLE15=For Heaven's Sake [1958 with Ray Ellis Orchestra]
TTITLE16=You Don't Know What Love Is [1958 with Ray Ellis Orchestra]
TTITLE17=I'm A Fool To Want You [1958 with Ray Ellis Orchestra]
EXTD=YEAR: 1989
EXTT0=
EXTT1=
EXTT2=
EXTT3=
EXTT4=
EXTT5=
EXTT6=
EXTT7=
EXTT8=
EXTT9=
EXTT10=
EXTT11=
EXTT12=
EXTT13=
EXTT14=
EXTT15=
EXTT16=
EXTT17=
PLAYORDER=
